<?xml version="1.0" standalone="no"?>
<!DOCTYPE svg PUBLIC "-//W3C//DTD SVG 20010904//EN"
 "http://www.w3.org/TR/2001/REC-SVG-20010904/DTD/svg10.dtd">
<svg version="1.0" xmlns="http://www.w3.org/2000/svg"
 width="500.000000pt" height="500.000000pt" viewBox="0 0 500.000000 500.000000"
 preserveAspectRatio="xMidYMid meet">

<g transform="translate(0.000000,500.000000) scale(0.100000,-0.100000)"
fill="#000000" stroke="none">
<path d="M0 2500 l0 -2500 2500 0 2500 0 0 2500 0 2500 -2500 0 -2500 0 0
-2500z m2449 1946 c14 -17 -9 -39 -33 -30 -19 7 -20 16 -4 32 15 15 23 15 37
-2z m120 0 c9 -10 8 -16 -4 -26 -13 -11 -19 -11 -32 2 -16 17 -10 38 11 38 8
0 19 -6 25 -14z m117 -25 c-9 -14 -33 -14 -41 -1 -4 6 -1 18 6 26 11 13 14 13
27 0 8 -8 11 -19 8 -25z m-352 11 c10 -16 -11 -34 -33 -27 -18 5 -20 9 -10 21
13 15 35 19 43 6z m469 2 c9 -10 -4 -34 -18 -34 -17 0 -28 17 -20 30 7 11 28
13 38 4z m-587 -43 c-9 -14 -33 -14 -41 -1 -4 6 -1 18 6 26 11 13 14 13 27 0
8 -8 11 -19 8 -25z m704 4 c0 -19 -27 -26 -40 -10 -9 11 -9 17 2 29 14 15 38
4 38 -19z m-817 -11 c9 -10 -4 -34 -18 -34 -17 0 -28 17 -20 30 7 11 28 13 38
4z m927 -14 c0 -11 -6 -20 -14 -20 -18 0 -29 16 -21 30 11 18 35 11 35 -10z
m-1045 -40 c0 -22 -29 -18 -33 3 -3 14 1 18 15 15 10 -2 18 -10 18 -18z m1162
4 c5 -16 -29 -27 -38 -12 -4 6 -5 16 -2 21 7 11 35 5 40 -9z m-303 -24 c301
-59 566 -196 786 -407 121 -116 195 -208 275 -345 51 -85 125 -247 125 -271 0
-10 -498 -187 -525 -187 -6 0 -20 26 -33 58 -60 156 -200 327 -351 431 -160
110 -322 166 -511 177 -407 25 -784 -194 -959 -556 -23 -46 -41 -90 -41 -97 0
-25 -12 -21 -480 142 -77 26 -76 19 -15 156 228 506 697 848 1262 919 109 14
344 4 467 -20z m-966 -23 c2 -10 -3 -17 -12 -17 -18 0 -29 16 -21 31 9 14 29
6 33 -14z m1372 -2 c0 -7 -6 -15 -14 -18 -18 -7 -31 24 -14 34 15 9 28 2 28
-16z m-1480 -50 c0 -8 -7 -15 -15 -15 -8 0 -15 7 -15 15 0 8 7 15 15 15 8 0
15 -7 15 -15z m1586 4 c3 -6 0 -15 -7 -20 -22 -14 -29 -11 -29 11 0 21 24 27
36 9z m-1686 -64 c0 -8 -6 -15 -14 -15 -17 0 -28 14 -19 24 12 12 33 6 33 -9z
m1786 4 c8 -14 -18 -31 -30 -19 -9 9 0 30 14 30 5 0 12 -5 16 -11z m-1886 -74
c0 -8 -7 -15 -15 -15 -8 0 -15 7 -15 15 0 8 7 15 15 15 8 0 15 -7 15 -15z
m1988 -2 c2 -8 -5 -13 -17 -13 -12 0 -21 6 -21 16 0 18 31 15 38 -3z m-2078
-73 c0 -13 -5 -18 -15 -14 -8 4 -15 12 -15 20 0 8 7 14 15 14 8 0 15 -9 15
-20z m2164 12 c8 -13 -11 -35 -23 -28 -16 10 -14 36 3 36 8 0 17 -4 20 -8z
m-2246 -89 c2 -8 -5 -13 -17 -13 -12 0 -21 6 -21 16 0 18 31 15 38 -3z m2332
2 c0 -8 -7 -15 -15 -15 -8 0 -15 7 -15 15 0 8 7 15 15 15 8 0 15 -7 15 -15z
m-2417 -90 c1 -5 -6 -11 -15 -13 -11 -2 -18 3 -18 13 0 17 30 18 33 0z m2497
0 c0 -8 -7 -15 -15 -15 -8 0 -15 7 -15 15 0 8 7 15 15 15 8 0 15 -7 15 -15z
m-2598 -112 c18 -15 35 -28 37 -30 2 -1 -14 -28 -35 -60 -22 -32 -60 -98 -86
-148 -26 -49 -48 -84 -48 -77 -1 53 76 342 91 342 4 0 22 -12 41 -27z m2751
-66 c25 -90 57 -232 57 -252 0 -5 -22 31 -48 80 -27 50 -65 115 -85 145 -20
30 -37 58 -37 62 0 8 70 58 81 58 4 0 18 -42 32 -93z m-2884 -59 c-15 -55 -38
-198 -45 -289 l-6 -86 48 -16 c27 -8 117 -36 199 -62 83 -26 154 -51 158 -55
11 -10 -13 -120 -25 -120 -12 0 -114 52 -184 94 -68 41 -109 45 -259 22 -49
-8 -93 -11 -98 -7 -26 25 96 366 184 516 26 44 41 45 28 3z m2999 -65 c27 -54
63 -134 81 -178 39 -101 83 -267 73 -277 -4 -4 -50 -1 -102 7 -157 24 -182 21
-269 -29 -98 -57 -169 -91 -176 -84 -10 10 -34 113 -27 119 4 3 77 27 162 53
223 69 224 69 237 80 19 18 -10 282 -43 389 -3 9 -1 17 4 17 6 0 32 -44 60
-97z m-1518 57 c0 -16 -4 -30 -10 -30 -5 0 -10 14 -10 30 0 17 5 30 10 30 6 0
10 -13 10 -30z m-230 0 c0 -5 -2 -10 -4 -10 -3 0 -8 5 -11 10 -3 6 -1 10 4 10
6 0 11 -4 11 -10z m44 -165 c12 -49 -7 -19 -25 40 -9 30 -14 57 -10 60 6 6 17
-27 35 -100z m375 40 c-7 -31 -16 -58 -21 -61 -11 -7 -10 2 8 68 21 73 30 69
13 -7z m-614 15 c8 -16 15 -33 15 -37 -1 -13 -40 41 -40 55 0 20 9 14 25 -18z
m840 -10 c-9 -18 -19 -30 -21 -27 -3 3 2 19 11 37 9 18 19 30 21 27 3 -3 -2
-19 -11 -37z m-415 -51 c0 -33 -4 -59 -10 -59 -6 0 -10 29 -10 66 0 41 4 63
10 59 6 -3 10 -33 10 -66z m-347 -75 c15 -26 25 -49 22 -52 -6 -7 -5 -8 -39
51 -35 61 -20 62 17 1z m682 -9 c-15 -25 -30 -44 -32 -41 -3 2 7 25 22 51 15
25 30 44 32 41 3 -2 -7 -25 -22 -51z m-396 -23 c13 -9 29 -21 35 -26 7 -5 26
2 50 18 55 37 95 42 149 18 62 -27 82 -61 82 -137 -1 -79 -34 -146 -127 -254
-62 -74 -79 -111 -50 -111 5 0 42 29 83 65 103 89 185 130 263 130 99 -1 146
-47 146 -144 0 -42 -5 -56 -31 -86 l-31 -35 31 -35 c27 -31 31 -43 31 -91 0
-92 -53 -144 -147 -144 -67 0 -150 42 -255 129 -79 65 -108 78 -108 50 0 -5
29 -44 65 -86 153 -180 174 -334 54 -396 -47 -24 -109 -17 -155 18 -30 23 -40
26 -53 16 -80 -58 -116 -64 -180 -31 -63 32 -86 110 -61 201 13 46 72 138 138
212 45 52 58 87 32 87 -4 0 -46 -32 -92 -70 -103 -87 -172 -123 -249 -128 -47
-4 -65 0 -92 17 -72 44 -87 145 -33 216 l27 35 -25 31 c-50 59 -47 145 7 197
83 80 226 40 392 -112 28 -25 55 -46 62 -46 30 0 18 26 -47 102 -97 115 -125
174 -125 265 0 62 3 75 25 98 51 56 132 67 189 27z m-464 -42 c27 -27 45 -50
39 -50 -5 0 -32 23 -59 50 -27 28 -45 50 -39 50 5 0 32 -22 59 -50z m1043 -5
c-63 -61 -74 -57 -13 5 27 27 51 47 54 45 2 -3 -16 -25 -41 -50z m-1257 -91
c17 -8 29 -18 26 -20 -6 -6 -67 23 -67 31 0 8 10 6 41 -11z m1469 -8 c-19 -13
-39 -22 -43 -19 -10 6 42 41 63 42 8 1 -1 -10 -20 -23z m-1065 -95 c-7 -6 -74
58 -87 84 -6 11 13 -2 41 -29 28 -28 48 -52 46 -55z m705 44 c-25 -24 -49 -44
-55 -45 -5 0 13 22 40 50 27 27 51 47 54 44 3 -2 -15 -25 -39 -49z m-964 -22
c26 -15 43 -28 37 -30 -10 -4 -93 44 -93 53 0 7 7 4 56 -23z m1186 -4 c-29
-17 -55 -29 -58 -26 -7 6 76 55 96 56 8 0 -9 -13 -38 -30z m-1435 -115 c-3 -3
-12 -4 -19 -1 -8 3 -5 6 6 6 11 1 17 -2 13 -5z m147 -36 c21 -5 36 -12 33 -15
-8 -7 -117 19 -123 29 -6 9 11 6 90 -14z m1462 14 c-6 -10 -116 -36 -123 -29
-5 6 82 34 110 36 10 1 16 -3 13 -7z m-2599 -117 c8 -23 -2 -28 -26 -13 -15 9
-24 9 -31 2 -8 -8 -1 -17 24 -32 43 -26 48 -57 11 -74 -30 -13 -75 3 -75 27 0
17 16 20 25 5 8 -13 45 -13 45 -1 0 6 -12 16 -27 23 -37 18 -50 42 -34 62 18
21 80 21 88 1z m147 -4 c27 -30 18 -91 -16 -111 -25 -13 -31 -13 -55 0 -57 32
-36 130 27 130 15 0 35 -9 44 -19z m154 7 c6 -7 10 -29 10 -48 1 -19 2 -44 4
-55 2 -12 -3 -20 -12 -20 -8 0 -16 9 -18 20 -6 29 -20 41 -34 27 -8 -8 -8 -15
0 -25 14 -17 6 -27 -22 -27 -19 0 -21 6 -21 70 l0 70 41 0 c23 0 46 -6 52 -12z
m176 4 c2 -4 1 -14 -4 -22 -7 -12 -11 -12 -25 0 -15 13 -16 9 -14 -45 3 -61
-5 -73 -38 -61 -12 5 -14 9 -5 18 7 7 12 29 12 49 0 38 -13 58 -25 39 -8 -13
-25 -3 -25 16 0 11 14 14 59 14 33 0 62 -4 65 -8z m142 -3 c11 -18 -13 -34
-30 -20 -8 7 -20 10 -26 6 -17 -11 -11 -23 13 -27 12 -2 22 -7 22 -13 0 -5
-10 -11 -22 -13 -13 -2 -23 -10 -23 -18 0 -17 31 -19 48 -2 9 9 13 7 18 -5 10
-27 -5 -37 -56 -37 l-49 0 6 55 c4 37 2 60 -7 70 -11 13 -5 15 43 15 31 0 59
-5 63 -11z m87 -56 c-1 -62 -3 -68 -23 -68 -20 0 -22 6 -23 68 -2 65 -1 67 23
67 24 0 25 -2 23 -67z m151 45 c22 -31 20 -74 -4 -98 -36 -36 -84 -20 -103 33
-7 20 9 68 26 79 24 15 66 8 81 -14z m154 0 c4 -20 -24 -25 -30 -6 -3 7 -11 9
-24 4 -19 -8 -19 -8 0 -19 10 -7 31 -22 45 -35 l26 -22 -24 -20 c-37 -32 -91
-21 -91 18 0 10 8 12 30 7 17 -4 30 -4 30 -1 0 3 -13 12 -30 21 -20 10 -30 23
-30 39 0 32 9 37 55 34 29 -2 41 -8 43 -20z m1720 0 c2 -11 -3 -18 -12 -18 -9
0 -16 5 -16 10 0 13 -27 13 -35 0 -3 -5 10 -17 29 -27 38 -17 48 -47 24 -71
-17 -17 -58 -15 -80 5 -28 25 -22 36 17 29 43 -8 46 5 5 21 -22 8 -30 18 -30
35 0 34 8 39 55 36 29 -2 41 -8 43 -20z m144 5 c24 -22 24 -77 -2 -103 -42
-42 -100 -13 -100 48 0 63 58 95 102 55z m154 6 c4 -7 8 -30 9 -53 1 -23 4
-48 6 -56 2 -8 -3 -15 -11 -15 -8 0 -17 11 -20 25 -3 14 -14 26 -24 28 -15 3
-17 -1 -11 -27 6 -28 4 -31 -19 -31 -27 0 -43 15 -26 25 14 9 13 88 -2 103 -9
9 -1 12 39 12 29 0 55 -5 59 -11z m174 -9 c0 -23 -10 -26 -29 -7 -11 10 -12 1
-9 -50 4 -59 3 -63 -17 -63 -30 0 -35 8 -24 38 13 33 2 89 -14 73 -17 -17 -27
-13 -27 9 0 18 7 20 60 20 53 0 60 -2 60 -20z m144 12 c2 -4 1 -14 -4 -22 -7
-12 -12 -12 -22 -2 -17 17 -38 15 -38 -3 0 -8 9 -15 20 -15 11 0 20 -7 20 -15
0 -8 -9 -15 -20 -15 -12 0 -20 -7 -20 -16 0 -13 7 -15 30 -10 25 5 30 2 30
-14 0 -17 -7 -20 -49 -20 -48 0 -72 12 -51 25 13 8 13 71 0 96 -10 18 -7 19
44 19 30 0 57 -4 60 -8z m96 -1 c0 -6 -4 -12 -8 -15 -13 -8 -13 -78 -1 -93 14
-16 -12 -29 -38 -19 -12 5 -14 9 -5 18 15 15 16 84 2 93 -20 12 -9 25 20 25
17 0 30 -4 30 -9z m140 -11 c11 -11 20 -31 20 -45 0 -31 -41 -75 -69 -75 -24
0 -61 45 -61 74 0 59 68 88 110 46z m150 5 c17 -21 4 -32 -20 -17 -26 16 -40
15 -40 -3 0 -8 6 -15 14 -15 8 0 24 -8 36 -18 43 -35 -2 -85 -59 -67 -21 6
-30 45 -11 45 6 0 10 -4 10 -10 0 -5 11 -10 25 -10 36 0 31 17 -10 34 -26 11
-35 21 -35 39 0 13 3 27 7 30 12 13 71 7 83 -8z m-2525 -85 c4 -6 -17 -10 -59
-10 -36 0 -66 4 -66 9 0 12 117 13 125 1z m1351 -2 c3 -4 -25 -8 -61 -8 -44 0
-64 4 -60 10 8 13 113 11 121 -2z m-1386 -176 c0 -9 -118 -41 -126 -33 -3 3
21 13 53 22 69 21 73 21 73 11z m1383 -13 c26 -6 45 -14 43 -17 -9 -8 -126 20
-126 30 0 5 8 7 18 4 9 -3 39 -10 65 -17z m-1853 -89 c7 -33 11 -62 9 -64 -2
-2 -49 -17 -104 -34 -225 -68 -281 -86 -292 -95 -7 -5 -13 -24 -13 -43 0 -55
30 -266 45 -316 8 -26 10 -50 5 -53 -12 -7 -134 245 -164 340 -25 79 -56 196
-56 210 0 4 28 5 63 1 34 -4 100 -11 146 -16 l85 -9 80 48 c98 59 157 90 172
91 6 0 17 -27 24 -60z m1970 50 c0 -5 -2 -10 -4 -10 -3 0 -8 5 -11 10 -3 6 -1
10 4 10 6 0 11 -4 11 -10z m428 -60 l124 -71 139 19 c77 10 142 15 144 12 6
-9 -37 -168 -70 -260 -34 -93 -133 -290 -146 -290 -6 0 -8 8 -5 18 28 89 63
369 48 384 -4 4 -95 35 -202 69 -107 33 -198 64 -202 67 -10 10 23 122 36 122
6 0 67 -32 134 -70z m-1828 -30 c0 -5 -24 -22 -52 -36 -59 -30 -57 -22 5 18
50 32 47 31 47 18z m-384 -37 c115 -280 338 -492 611 -581 181 -60 400 -68
573 -22 292 78 526 273 656 548 24 50 48 92 52 92 5 0 101 -32 213 -71 338
-117 304 -102 302 -135 -1 -16 -32 -87 -68 -159 -226 -451 -607 -739 -1125
-851 -106 -23 -426 -26 -535 -6 -461 88 -827 329 -1068 704 -85 131 -165 303
-154 331 3 7 20 18 38 24 19 6 131 45 249 86 118 42 221 76 228 76 7 1 20 -16
28 -36z m1534 17 c36 -19 60 -40 44 -40 -10 0 -94 50 -94 55 0 8 10 5 50 -15z
m-969 -41 c-23 -23 -44 -39 -46 -37 -2 2 14 23 37 46 22 24 43 40 46 37 3 -3
-13 -24 -37 -46z m749 6 c24 -24 42 -47 39 -50 -3 -2 -27 18 -54 45 -27 28
-45 50 -39 50 5 0 30 -20 54 -45z m-1080 -33 c0 -10 -50 -35 -57 -28 -3 2 8
11 24 20 34 18 33 18 33 8z m1438 -12 c45 -28 40 -35 -8 -10 -38 19 -49 30
-32 30 4 0 22 -9 40 -20z m-1252 -107 c-24 -26 -47 -45 -50 -42 -8 8 66 87 82
88 8 1 -7 -20 -32 -46z m1044 2 c24 -25 40 -45 34 -45 -5 0 -30 20 -54 45 -24
25 -40 45 -34 45 5 0 30 -20 54 -45z m-176 -77 c15 -27 23 -48 18 -48 -9 0
-62 91 -62 106 0 12 14 -6 44 -58z m-691 2 c-15 -27 -32 -50 -36 -50 -5 0 4
23 19 50 15 28 31 50 36 50 5 0 -3 -22 -19 -50z m347 -80 c0 -33 -4 -60 -10
-60 -6 0 -10 27 -10 60 0 33 4 60 10 60 6 0 10 -27 10 -60z m-196 -39 c-21
-74 -31 -73 -14 1 14 57 20 72 26 65 3 -2 -3 -32 -12 -66z m381 13 c9 -31 14
-61 12 -67 -4 -12 -37 89 -37 112 0 25 10 8 25 -45z m1264 -10 c-18 -102 -71
-284 -83 -284 -6 0 -26 13 -45 29 l-34 28 42 64 c23 35 60 101 84 146 23 45
43 81 44 79 2 -1 -2 -29 -8 -62z m-2880 -27 c23 -43 59 -105 81 -137 22 -33
40 -61 40 -64 0 -7 -72 -56 -82 -56 -13 0 -65 190 -83 305 -8 50 -6 48 44 -48z
m1002 2 c-12 -19 -21 -27 -21 -19 0 18 30 64 37 57 2 -3 -5 -20 -16 -38z m859
-18 c0 -10 -7 -6 -20 14 -11 17 -20 35 -20 40 1 17 40 -36 40 -54z m-430 -86
c0 -19 -4 -35 -10 -35 -5 0 -10 16 -10 35 0 19 5 35 10 35 6 0 10 -16 10 -35z
m-1250 -240 c0 -8 -7 -15 -15 -15 -16 0 -20 12 -8 23 11 12 23 8 23 -8z m2500
0 c0 -8 -7 -15 -15 -15 -8 0 -15 7 -15 15 0 8 7 15 15 15 8 0 15 -7 15 -15z
m-2420 -90 c0 -8 -7 -15 -15 -15 -8 0 -15 7 -15 15 0 8 7 15 15 15 8 0 15 -7
15 -15z m2340 0 c0 -8 -7 -15 -15 -15 -8 0 -15 7 -15 15 0 8 7 15 15 15 8 0
15 -7 15 -15z m-2250 -80 c0 -8 -7 -15 -15 -15 -8 0 -15 7 -15 15 0 8 7 15 15
15 8 0 15 -7 15 -15z m2163 0 c1 -5 -6 -11 -15 -13 -11 -2 -18 3 -18 13 0 17
30 18 33 0z m-2075 -72 c-5 -25 -28 -28 -28 -4 0 12 6 21 16 21 9 0 14 -7 12
-17z m1986 9 c8 -13 -11 -35 -23 -28 -16 10 -14 36 3 36 8 0 17 -4 20 -8z
m-1884 -78 c0 -9 -7 -14 -17 -12 -25 5 -28 28 -4 28 12 0 21 -6 21 -16z m1790
1 c0 -8 -9 -15 -20 -15 -11 0 -20 7 -20 15 0 8 9 15 20 15 11 0 20 -7 20 -15z
m-100 -61 c0 -8 -9 -14 -20 -14 -19 0 -27 19 -14 33 10 9 34 -4 34 -19z
m-1590 2 c0 -19 -27 -28 -33 -11 -7 15 1 25 20 25 7 0 13 -6 13 -14z m106 -47
c10 -17 -13 -36 -27 -22 -12 12 -4 33 11 33 5 0 12 -5 16 -11z m1377 5 c9 -10
-4 -34 -18 -34 -17 0 -28 17 -20 30 7 11 28 13 38 4z m-1263 -59 c0 -7 -7 -16
-15 -19 -20 -7 -33 23 -14 34 16 10 29 4 29 -15z m1148 17 c12 -8 7 -42 -7
-42 -17 1 -31 18 -25 33 7 19 13 20 32 9z m-1040 -55 c2 -10 -3 -17 -12 -17
-18 0 -29 16 -21 31 9 14 29 6 33 -14z m930 0 c2 -12 -3 -17 -17 -17 -12 0
-21 6 -21 13 0 31 32 34 38 4z m-813 -17 c4 -6 1 -18 -6 -26 -11 -13 -14 -13
-27 0 -8 8 -11 19 -8 25 9 14 33 14 41 1z m700 -10 c0 -8 -8 -16 -17 -18 -13
-2 -18 3 -18 18 0 15 5 20 18 18 9 -2 17 -10 17 -18z m-586 -13 c13 -16 5 -27
-21 -27 -18 0 -25 20 -11 33 10 10 19 8 32 -6z m471 3 c13 -8 13 -11 0 -24
-18 -19 -46 -5 -37 18 7 18 16 20 37 6z m-351 -14 c9 -10 8 -16 -4 -26 -21
-17 -51 6 -34 26 6 8 15 14 19 14 4 0 13 -6 19 -14z m117 -25 c-9 -14 -33 -14
-41 -1 -4 6 -1 18 6 26 11 13 14 13 27 0 8 -8 11 -19 8 -25z m118 30 c9 -14
-4 -41 -19 -41 -15 0 -28 27 -19 41 3 5 11 9 19 9 8 0 16 -4 19 -9z m-1679
-205 c38 -38 18 -81 -40 -88 -30 -3 -32 -8 -20 -40 6 -15 1 -18 -29 -18 -20 0
-36 5 -36 10 0 6 5 10 10 10 14 0 13 117 -2 122 -26 9 6 28 48 28 34 0 51 -6
69 -24z m193 -3 c4 -25 -9 -29 -37 -11 -22 14 -51 4 -51 -17 0 -10 10 -15 30
-15 39 0 41 -27 3 -32 -20 -2 -28 -9 -28 -23 0 -24 41 -30 54 -7 11 19 31 7
31 -19 0 -17 -7 -19 -70 -19 -40 0 -70 4 -70 10 0 6 5 10 10 10 6 0 10 27 10
60 0 33 -4 60 -10 60 -5 0 -10 7 -10 15 0 13 12 15 68 13 61 -3 67 -5 70 -25z
m112 12 c0 -8 -4 -15 -10 -15 -6 0 -10 -26 -10 -59 0 -52 2 -58 20 -57 12 0
25 7 29 15 11 18 31 5 31 -20 0 -17 -7 -19 -65 -19 -37 0 -65 4 -65 10 0 6 5
10 10 10 6 0 10 27 10 60 0 33 -4 60 -10 60 -5 0 -10 7 -10 15 0 10 11 15 35
15 24 0 35 -5 35 -15z m221 -70 c16 -44 29 -81 29 -82 0 -2 -14 -3 -31 -3 -26
0 -29 3 -24 20 5 17 2 20 -25 20 -27 0 -30 -3 -25 -20 5 -17 2 -20 -24 -20
-31 0 -38 8 -22 26 5 5 18 36 30 68 28 75 30 78 48 74 9 -2 27 -36 44 -83z
m224 76 c3 -5 1 -12 -5 -16 -5 -3 -10 -33 -10 -65 0 -46 3 -58 15 -56 8 1 21
8 27 14 19 19 28 14 28 -13 0 -24 -2 -25 -67 -25 -52 0 -64 3 -55 12 15 15 16
124 2 133 -17 11 0 25 30 25 16 0 31 -4 35 -9z m220 -14 c46 -39 33 -127 -22
-148 -32 -12 -79 4 -93 32 -19 34 -12 88 15 114 30 31 66 32 100 2z m215 -2
c0 -27 -18 -33 -39 -12 -11 10 -12 -1 -9 -60 l4 -73 -33 0 c-18 0 -33 5 -33
10 0 6 5 10 10 10 13 0 13 107 1 115 -5 3 -12 1 -16 -5 -12 -20 -35 -10 -35
15 0 24 2 25 75 25 73 0 75 -1 75 -25z m170 0 c0 -16 -6 -25 -15 -25 -8 0 -15
5 -15 10 0 6 -11 10 -25 10 -18 0 -25 -5 -25 -20 0 -16 7 -20 30 -20 20 0 30
-5 30 -15 0 -10 -10 -15 -31 -15 -26 0 -30 -3 -27 -22 4 -27 37 -37 50 -14 13
24 28 19 28 -9 0 -24 -2 -25 -62 -25 l-63 0 0 85 0 85 63 0 c59 0 62 -1 62
-25z m156 15 c24 -9 26 -14 21 -49 -2 -21 -1 -44 3 -52 4 -8 11 -24 15 -37 6
-21 4 -23 -16 -20 -15 2 -25 12 -29 28 -8 33 -50 42 -50 11 0 -12 5 -21 10
-21 6 0 10 -4 10 -10 0 -5 -15 -10 -32 -10 l-33 0 0 85 0 85 37 0 c20 0 49 -5
64 -10z m149 1 c3 -5 1 -12 -5 -16 -13 -8 -13 -125 0 -125 6 0 10 -4 10 -10 0
-5 -19 -10 -42 -10 -33 0 -39 3 -30 12 15 15 16 124 2 133 -17 11 0 25 30 25
16 0 31 -4 35 -9z m166 -76 c16 -44 29 -81 29 -82 0 -2 -11 -3 -25 -3 -19 0
-25 5 -25 21 0 16 -5 20 -27 17 -20 -2 -27 -8 -25 -20 2 -14 -4 -18 -28 -18
-29 0 -40 13 -21 25 5 3 17 29 27 58 37 114 55 115 95 2z m289 60 c0 -16 -6
-25 -15 -25 -8 0 -15 5 -15 11 0 6 -10 9 -22 7 -35 -5 -31 -42 5 -46 28 -3 33
-26 6 -28 -35 -2 -39 -5 -39 -24 0 -11 5 -20 10 -20 6 0 10 -4 10 -10 0 -5
-15 -10 -33 -10 l-33 0 4 65 c3 39 0 70 -7 78 -17 21 -3 27 66 27 61 0 63 -1
63 -25z m170 0 c0 -16 -6 -25 -15 -25 -8 0 -15 5 -15 11 0 18 -45 5 -48 -13
-3 -14 3 -18 27 -18 21 0 31 -5 31 -15 0 -10 -10 -15 -30 -15 -23 0 -30 -4
-30 -20 0 -29 24 -35 54 -15 26 17 26 17 26 -9 0 -25 -2 -26 -64 -26 l-64 0 5
48 c2 26 5 57 7 70 2 12 -1 22 -5 22 -5 0 -9 7 -9 15 0 12 14 15 65 15 63 0
65 -1 65 -25z m164 4 c21 -17 26 -29 26 -66 0 -67 -19 -83 -94 -83 -47 0 -57
3 -48 12 15 15 16 124 2 133 -20 13 2 25 44 25 29 0 52 -7 70 -21z m204 -6 c3
-24 -21 -33 -33 -13 -11 18 -45 11 -45 -9 0 -14 8 -21 25 -23 14 -2 26 -7 26
-13 0 -5 -12 -11 -26 -13 -17 -2 -25 -9 -25 -23 0 -27 27 -35 49 -15 20 18 31
12 31 -16 0 -16 -9 -18 -72 -18 -56 0 -69 3 -60 12 15 15 16 124 2 133 -24 15
6 26 63 23 56 -3 62 -5 65 -25z m163 8 c21 -17 23 -23 13 -49 -7 -17 -8 -34
-4 -39 4 -4 10 -20 14 -35 5 -24 3 -28 -14 -28 -15 0 -22 8 -27 31 -4 24 -10
29 -27 27 -13 -2 -20 -9 -17 -18 9 -39 6 -45 -24 -42 -34 4 -46 13 -27 19 15
6 17 123 2 123 -5 0 -10 7 -10 15 0 23 91 20 121 -4z m189 -48 c13 -38 26 -72
31 -77 16 -18 9 -26 -22 -26 -26 0 -29 3 -24 20 5 17 2 20 -25 20 -27 0 -30
-3 -25 -20 5 -17 2 -20 -25 -20 -27 0 -31 3 -25 18 5 9 19 47 33 85 18 48 30
67 43 67 13 0 23 -18 39 -67z m145 58 c3 -5 1 -12 -5 -16 -5 -3 -10 -31 -10
-61 0 -61 21 -83 46 -49 11 14 17 16 25 8 7 -7 9 -19 6 -27 -5 -12 -21 -16
-65 -16 l-58 0 4 65 c3 39 0 70 -7 78 -6 8 -8 17 -4 20 10 10 61 8 68 -2z"/>
<path d="M2433 4136 c13 -34 20 -136 8 -136 -6 0 -11 -4 -11 -10 0 -5 14 -10
30 -10 27 0 30 3 25 25 -3 14 -7 36 -10 50 -10 45 13 26 30 -25 9 -27 22 -50
29 -50 7 0 21 26 32 58 l19 57 3 -45 c2 -25 -1 -46 -7 -48 -24 -8 -9 -22 24
-22 19 0 35 5 35 10 0 6 -4 10 -10 10 -6 0 -10 28 -10 65 0 37 4 65 10 65 6 0
10 5 10 11 0 6 -14 9 -32 7 -29 -3 -33 -8 -51 -61 -10 -32 -22 -56 -25 -53 -3
3 -15 30 -26 58 -18 45 -25 54 -50 56 -22 3 -27 0 -23 -12z"/>
<path d="M2704 4075 c0 -36 -6 -71 -12 -77 -20 -20 -13 -28 24 -28 31 0 35 2
24 15 -14 17 -4 116 12 126 16 10 -1 29 -25 29 -20 0 -22 -5 -23 -65z"/>
<path d="M2295 4125 c-5 -2 -22 -6 -38 -9 -26 -6 -27 -7 -11 -31 10 -15 17
-48 18 -80 1 -61 0 -60 76 -44 30 6 50 16 50 24 0 22 -19 28 -36 11 -25 -25
-54 -20 -54 9 0 18 7 26 25 31 33 8 33 28 0 21 -19 -3 -29 1 -36 15 -13 23
-12 24 24 33 17 5 27 3 27 -4 0 -6 5 -11 10 -11 6 0 10 9 10 20 0 15 -6 20
-27 19 -16 0 -32 -2 -38 -4z"/>
<path d="M2841 4041 c-23 -33 -46 -63 -52 -67 -8 -4 -7 -9 2 -15 23 -15 39
-10 39 11 0 22 3 23 38 14 18 -5 22 -12 18 -29 -5 -18 -1 -24 16 -28 12 -4 23
-5 23 -4 1 1 -1 40 -4 87 -8 110 -23 116 -80 31z m45 -39 c-4 -3 -11 -1 -17 5
-8 8 -7 18 3 34 l13 24 3 -28 c2 -16 1 -31 -2 -35z"/>
<path d="M2077 4062 c-44 -14 -63 -32 -34 -32 16 0 50 -101 41 -124 -7 -19 4
-20 42 -6 l27 11 -22 20 c-26 24 -23 43 6 47 13 2 26 -6 37 -22 9 -15 23 -26
31 -26 21 0 19 8 -11 47 -14 18 -22 37 -19 43 9 14 -12 47 -33 52 -10 3 -39
-2 -65 -10z m66 -25 c6 -17 -3 -32 -26 -40 -20 -7 -33 13 -23 38 7 19 42 20
49 2z"/>
<path d="M3040 4027 c-46 -23 -65 -94 -35 -133 18 -24 19 -50 3 -58 -7 -3 -2
-4 12 -3 14 1 25 8 25 17 1 8 7 14 13 12 17 -3 52 16 52 29 0 7 -12 8 -30 4
-55 -12 -79 37 -44 90 24 36 84 32 84 -6 0 -20 15 -26 24 -10 10 16 -5 41 -35
56 -34 18 -37 18 -69 2z"/>
<path d="M1898 3980 c-42 -22 -57 -40 -34 -40 19 0 70 -96 62 -116 -7 -18 14
-17 39 2 19 14 19 16 3 25 -25 14 -22 34 7 53 17 11 25 26 25 44 0 54 -38 66
-102 32z m72 -35 c0 -27 -26 -40 -46 -24 -19 16 -18 36 3 47 24 14 43 4 43
-23z"/>
<path d="M3260 3969 c0 -5 4 -8 9 -5 5 3 14 -1 21 -9 7 -8 22 -15 34 -14 l21
0 -21 9 c-12 5 -25 13 -29 19 -8 14 -35 14 -35 0z"/>
<path d="M3211 3937 c-31 -15 -63 -75 -55 -102 19 -60 86 -75 129 -29 61 65 1
170 -74 131z m63 -33 c20 -19 20 -28 1 -64 -30 -58 -106 -46 -91 14 8 31 40
66 60 66 8 0 22 -7 30 -16z"/>
<path d="M1695 3840 c-11 -12 -13 -20 -6 -20 13 0 56 -88 47 -97 -6 -6 -65 33
-84 56 -11 13 -15 13 -34 -7 -18 -18 -19 -22 -6 -22 9 0 44 -16 79 -35 58 -33
89 -39 89 -17 0 5 -11 35 -25 66 -14 31 -25 65 -25 76 0 25 -12 25 -35 0z"/>
<path d="M3390 3833 c0 -22 -79 -103 -100 -103 -8 0 7 -20 35 -44 48 -43 75
-49 75 -19 0 9 -6 13 -14 10 -19 -8 -48 26 -40 47 7 19 18 20 44 4 25 -16 41
-1 17 16 -20 15 -22 27 -5 44 9 9 16 8 30 -5 10 -9 18 -22 18 -30 0 -17 26
-17 33 0 2 6 -18 31 -44 55 -39 35 -49 40 -49 25z"/>
<path d="M1527 3676 c-30 -28 -35 -67 -12 -86 13 -11 22 -10 51 3 47 23 74 22
74 -2 0 -21 -25 -35 -54 -32 -26 4 -15 -23 12 -27 25 -4 72 41 72 67 0 40 -56
55 -94 26 -27 -20 -46 -19 -46 3 0 23 19 42 43 42 10 0 17 5 15 13 -8 21 -33
19 -61 -7z"/>
<path d="M3500 3675 c-10 -12 -10 -24 0 -61 11 -39 11 -47 -1 -55 -20 -12 -49
24 -42 52 4 16 2 20 -8 17 -41 -14 -1 -98 47 -98 36 0 49 24 35 69 -15 52 -14
61 9 61 23 0 43 -32 33 -56 -4 -12 -2 -15 8 -12 24 8 22 46 -5 73 -28 28 -58
32 -76 10z"/>
<path d="M2383 3305 c-34 -15 -53 -41 -53 -75 0 -20 1 -20 23 5 26 31 100 45
136 25 21 -11 22 -10 11 10 -6 12 -27 28 -45 36 -40 16 -32 17 -72 -1z"/>
<path d="M2654 3312 c-12 -2 -31 -13 -43 -26 l-21 -23 53 5 c49 4 57 2 90 -28
39 -34 43 -31 27 17 -14 39 -60 63 -106 55z"/>
<path d="M2047 2980 c-34 -27 -44 -78 -23 -118 28 -54 54 -57 35 -4 -14 41 3
94 38 122 l26 20 -25 0 c-14 0 -37 -9 -51 -20z"/>
<path d="M2999 2974 c26 -23 34 -40 38 -77 4 -30 1 -52 -7 -62 -8 -9 -8 -15
-2 -15 21 0 52 53 52 89 -1 49 -27 80 -75 88 l-39 6 33 -29z"/>
<path d="M2049 2727 c-67 -50 -32 -167 50 -167 l25 0 -23 16 c-35 25 -51 73
-41 119 10 46 10 47 -11 32z"/>
<path d="M3030 2721 c23 -44 2 -127 -37 -150 -16 -9 -15 -10 5 -11 78 -1 112
99 56 161 -22 25 -38 24 -24 0z"/>
<path d="M2330 2320 c0 -43 53 -84 99 -76 19 3 45 16 58 29 l24 23 -60 -4
c-56 -4 -62 -2 -91 26 l-30 30 0 -28z"/>
<path d="M2741 2325 c-29 -31 -76 -44 -115 -34 -16 5 -31 7 -33 5 -8 -7 42
-47 65 -53 34 -8 90 22 103 54 16 43 7 56 -20 28z"/>
<path d="M811 2846 c-7 -8 -11 -27 -9 -43 2 -22 8 -28 28 -28 20 0 26 6 28 28
3 27 -12 57 -28 57 -4 0 -13 -6 -19 -14z"/>
<path d="M974 2849 c-10 -17 13 -36 27 -22 12 12 4 33 -11 33 -5 0 -12 -5 -16
-11z"/>
<path d="M1522 2851 c-8 -5 -12 -22 -10 -42 2 -26 8 -35 25 -37 17 -3 24 3 29
24 10 41 -15 74 -44 55z"/>
<path d="M3541 2846 c-7 -8 -11 -27 -9 -43 2 -22 8 -28 28 -28 20 0 26 6 28
28 3 27 -12 57 -28 57 -4 0 -13 -6 -19 -14z"/>
<path d="M3700 2841 c0 -12 6 -21 16 -21 9 0 14 7 12 17 -5 25 -28 28 -28 4z"/>
<path d="M4242 2848 c-26 -26 -10 -78 23 -78 27 0 41 40 25 70 -12 23 -30 26
-48 8z"/>
<path d="M3660 2303 c-13 -17 -20 -38 -18 -57 4 -42 43 -47 86 -12 39 34 54
33 50 -1 -2 -20 -9 -29 -25 -31 -28 -4 -31 -32 -4 -32 24 0 61 45 61 74 0 49
-43 59 -88 21 -32 -26 -47 -31 -56 -16 -10 16 6 42 33 52 20 8 22 12 11 19
-22 14 -27 13 -50 -17z"/>
<path d="M1325 2287 c-28 -24 -32 -44 -20 -114 7 -41 25 -60 25 -28 0 11 11
15 39 15 73 0 115 71 75 128 -21 31 -83 30 -119 -1z m111 -32 c7 -30 -6 -48
-45 -65 -38 -15 -71 1 -71 35 0 30 35 55 77 55 26 0 34 -5 39 -25z"/>
<path d="M1490 2157 c0 -8 -20 -28 -45 -46 -34 -25 -45 -39 -45 -59 1 -32 16
-54 48 -71 21 -11 29 -9 65 15 22 14 51 30 64 33 22 6 22 7 8 29 -18 24 -35
29 -35 10 0 -7 -21 -26 -46 -42 l-47 -30 -18 23 c-10 12 -16 27 -13 34 9 21
83 67 99 61 19 -8 19 1 -1 31 -18 27 -34 33 -34 12z"/>
<path d="M3570 2142 c-49 -40 -14 -125 57 -138 45 -8 83 25 83 72 0 65 -89
107 -140 66z m97 -34 c59 -56 -11 -108 -73 -55 -22 19 -26 29 -20 50 5 22 12
27 38 27 19 0 41 -9 55 -22z"/>
<path d="M3480 2002 c-18 -5 -80 -63 -80 -74 0 -4 5 -8 11 -8 19 0 99 -70 99
-86 0 -25 19 -15 50 28 33 45 34 76 3 110 -18 20 -63 37 -83 30z m53 -50 c31
-32 34 -54 11 -73 -13 -11 -21 -6 -56 29 -35 35 -40 43 -29 56 20 24 44 19 74
-12z"/>
<path d="M1580 1928 c-80 -38 -77 -35 -57 -55 16 -16 18 -16 30 0 12 17 14 17
36 -7 22 -23 22 -25 4 -35 -17 -9 -17 -11 5 -33 19 -19 22 -20 22 -5 0 10 14
44 30 77 51 100 39 110 -70 58z m56 -24 c-3 -9 -6 -18 -6 -20 0 -2 -7 -4 -15
-4 -18 0 -20 26 -2 33 23 10 29 7 23 -9z"/>
<path d="M1752 1856 c4 -19 -60 -106 -78 -106 -19 0 -18 -10 4 -26 23 -18 40
-17 38 2 -2 24 30 42 46 26 10 -10 10 -19 0 -44 -6 -17 -9 -35 -6 -39 6 -11
35 -12 33 -1 -4 23 16 72 32 77 44 14 31 64 -25 103 -37 25 -48 27 -44 8z m58
-52 c11 -12 10 -18 -3 -32 -15 -15 -19 -15 -32 -1 -17 17 -11 49 10 49 7 0 18
-7 25 -16z"/>
<path d="M3303 1845 c-3 -9 4 -42 16 -74 11 -32 21 -65 21 -75 0 -20 23 -21
39 -2 9 10 8 16 -4 26 -14 12 -14 15 1 31 21 23 33 24 48 4 10 -12 13 -12 30
0 11 8 18 16 15 18 -18 14 -147 87 -152 87 -4 0 -10 -7 -14 -15z m77 -57 c0
-4 -5 -10 -12 -14 -12 -8 -40 24 -32 37 5 9 44 -11 44 -23z"/>
<path d="M1895 1750 c-10 -16 3 -29 25 -23 11 3 20 0 20 -6 0 -19 -50 -111
-60 -111 -19 0 -10 -17 15 -28 21 -10 25 -9 25 4 0 25 50 114 64 114 8 0 17
-10 20 -22 6 -21 7 -22 17 -5 14 23 6 33 -51 62 -54 28 -66 30 -75 15z"/>
<path d="M3133 1739 c-34 -21 -43 -39 -20 -39 17 0 68 -96 61 -115 -8 -21 4
-18 56 14 51 31 65 69 33 93 -10 7 -24 25 -30 41 -15 34 -53 36 -100 6z m74
-15 c3 -8 -2 -23 -11 -32 -15 -15 -17 -15 -33 1 -17 17 -17 19 1 33 25 18 35
18 43 -2z m39 -59 c7 -18 -12 -45 -32 -45 -19 0 -29 41 -13 51 21 13 39 11 45
-6z"/>
<path d="M2973 1705 c-9 -25 4 -29 17 -6 7 15 7 21 0 21 -6 0 -13 -7 -17 -15z"/>
<path d="M2972 1580 c3 -89 8 -99 37 -81 12 8 12 12 2 25 -10 12 -9 16 8 25
31 17 51 13 51 -9 0 -17 3 -18 24 -8 l25 11 -56 63 c-31 35 -65 64 -75 64 -16
0 -18 -9 -16 -90z m56 -1 c-18 -11 -28 -1 -28 29 l1 27 20 -24 c15 -18 17 -26
7 -32z"/>
<path d="M2071 1594 c-42 -51 -50 -68 -40 -75 21 -13 26 -11 32 11 6 23 25 26
52 6 16 -11 17 -17 7 -29 -10 -12 -9 -16 4 -21 32 -12 35 -6 32 81 -4 113 -16
116 -87 27z m59 -9 c0 -27 -1 -28 -24 -19 -12 5 -13 9 -3 25 16 26 27 24 27
-6z"/>
<path d="M2787 1602 c-34 -38 -20 -60 47 -77 48 -12 56 -31 21 -47 -23 -10
-29 -10 -40 5 -16 22 -25 22 -25 -2 0 -42 93 -38 112 5 15 32 -6 55 -59 63
-29 5 -38 11 -38 26 0 14 8 21 28 23 15 2 27 -1 27 -7 0 -6 7 -11 16 -11 11 0
14 5 10 16 -3 9 -6 18 -6 20 0 2 -17 4 -38 4 -25 0 -45 -7 -55 -18z"/>
<path d="M2254 1583 c-6 -23 -1 -32 31 -59 26 -21 36 -37 32 -48 -11 -27 -47
-17 -60 17 -9 25 -29 21 -25 -5 4 -31 53 -54 87 -42 42 15 40 55 -3 88 -43 32
-47 56 -10 56 17 0 28 -6 31 -20 6 -24 21 -26 30 -4 9 24 -23 44 -69 44 -32 0
-39 -4 -44 -27z"/>
<path d="M2500 1581 c0 -6 5 -13 10 -16 6 -3 10 -33 10 -66 0 -33 -4 -59 -10
-59 -5 0 -10 -4 -10 -10 0 -6 28 -10 65 -10 58 0 65 2 65 20 0 21 -15 27 -25
10 -3 -5 -17 -10 -31 -10 -22 0 -25 4 -22 28 2 21 9 28 31 30 33 4 26 22 -9
22 -21 0 -25 4 -22 23 4 27 45 37 54 13 8 -21 24 -10 24 15 0 17 -7 19 -65 19
-36 0 -65 -4 -65 -9z"/>
<path d="M934 915 c-8 -20 4 -35 26 -35 25 0 35 17 20 35 -16 19 -39 19 -46 0z"/>
<path d="M1475 887 c-8 -19 -2 -31 13 -26 5 2 6 13 2 24 -7 19 -8 19 -15 2z"/>
<path d="M1901 916 c-18 -21 -10 -87 12 -100 27 -16 61 27 53 68 -9 44 -42 60
-65 32z"/>
<path d="M2460 905 c0 -26 14 -31 39 -16 12 8 12 12 2 25 -20 24 -41 19 -41
-9z"/>
<path d="M2775 887 c-8 -19 -2 -31 13 -26 5 2 6 13 2 24 -7 19 -8 19 -15 2z"/>
<path d="M3390 876 c0 -63 11 -75 40 -46 25 25 26 62 2 83 -32 29 -42 21 -42
-37z"/>
<path d="M3757 909 c-3 -13 0 -22 9 -26 20 -7 38 11 31 31 -9 23 -34 20 -40
-5z"/>
<path d="M3960 881 c0 -12 5 -21 10 -21 6 0 10 6 10 14 0 8 -4 18 -10 21 -5 3
-10 -3 -10 -14z"/>
</g>
</svg>
